<svg width="911" height="426" viewBox="0 0 911 426" fill="none" xmlns="http://www.w3.org/2000/svg">
<path d="M789.143 423.712H733.591C733.335 423.712 733.207 423.456 733.207 422.944C733.207 422.432 733.335 422.176 733.591 422.176C736.407 422.176 738.498 421.963 739.863 421.536C741.228 421.109 742.124 420.256 742.551 418.976C743.063 417.696 743.319 415.819 743.319 413.344V354.08C743.319 351.605 743.063 349.771 742.551 348.576C742.124 347.296 741.228 346.443 739.863 346.016C738.498 345.504 736.407 345.248 733.591 345.248C733.335 345.248 733.207 344.992 733.207 344.48C733.207 343.968 733.335 343.712 733.591 343.712H786.839C787.692 343.712 788.119 344.096 788.119 344.864L788.375 361.504C788.375 361.675 788.162 361.803 787.735 361.888C787.308 361.888 787.01 361.76 786.839 361.504C785.9 356.64 783.938 353.013 780.951 350.624C777.964 348.235 774.039 347.04 769.175 347.04H763.927C761.794 347.04 760.087 347.296 758.807 347.808C757.612 348.235 756.759 349.003 756.247 350.112C755.735 351.136 755.479 352.544 755.479 354.336V412.832C755.479 414.624 755.692 416.117 756.119 417.312C756.631 418.421 757.399 419.232 758.423 419.744C759.447 420.171 760.898 420.384 762.775 420.384H769.047C774.85 420.384 779.543 419.019 783.127 416.288C786.711 413.472 789.271 409.333 790.807 403.872C790.892 403.616 791.148 403.531 791.575 403.616C792.087 403.701 792.343 403.829 792.343 404C792.002 406.389 791.703 409.248 791.447 412.576C791.191 415.904 791.063 418.976 791.063 421.792C791.063 423.072 790.423 423.712 789.143 423.712ZM781.975 394.784C781.975 391.2 780.78 388.469 778.391 386.592C776.002 384.715 772.418 383.776 767.639 383.776H749.719V380.448H767.767C772.546 380.448 776.087 379.637 778.391 378.016C780.695 376.395 781.847 374.048 781.847 370.976C781.847 370.72 782.06 370.592 782.487 370.592C782.999 370.592 783.255 370.72 783.255 370.976C783.255 373.707 783.212 375.84 783.127 377.376C783.127 378.912 783.127 380.491 783.127 382.112C783.127 384.16 783.17 386.208 783.255 388.256C783.426 390.219 783.511 392.395 783.511 394.784C783.511 394.955 783.255 395.04 782.743 395.04C782.231 395.04 781.975 394.955 781.975 394.784Z" fill="white"/>
<path d="M689.608 342.304C692.595 342.304 695.454 342.474 698.184 342.816C701 343.072 703.603 343.498 705.992 344.096C708.467 344.608 710.686 345.333 712.648 346.272C713.331 346.613 713.758 346.954 713.928 347.296C714.184 347.637 714.355 348.277 714.44 349.216L715.976 366.112C715.976 366.368 715.763 366.538 715.336 366.624C714.91 366.709 714.611 366.581 714.44 366.24C712.222 359.328 708.936 354.037 704.584 350.368C700.232 346.613 694.771 344.736 688.2 344.736C681.886 344.736 676.296 346.314 671.432 349.472C666.568 352.544 662.771 356.981 660.04 362.784C657.31 368.501 655.944 375.328 655.944 383.264C655.944 389.066 656.755 394.4 658.376 399.264C660.083 404.128 662.43 408.309 665.416 411.808C668.488 415.306 672.03 418.037 676.04 420C680.051 421.877 684.446 422.816 689.224 422.816C695.624 422.816 700.872 421.152 704.968 417.824C709.064 414.496 712.648 409.29 715.72 402.208C715.806 401.952 716.062 401.866 716.488 401.952C716.915 402.037 717.128 402.165 717.128 402.336L715.464 417.568C715.379 418.592 715.208 419.274 714.952 419.616C714.782 419.872 714.355 420.17 713.672 420.512C709.491 422.218 705.395 423.413 701.384 424.096C697.374 424.864 693.278 425.248 689.096 425.248C679.966 425.248 671.859 423.541 664.776 420.128C657.694 416.629 652.104 411.765 648.008 405.536C643.998 399.221 641.992 392.01 641.992 383.904C641.992 377.76 643.187 372.128 645.576 367.008C647.966 361.888 651.294 357.493 655.56 353.824C659.912 350.154 664.99 347.338 670.792 345.376C676.595 343.328 682.867 342.304 689.608 342.304Z" fill="white"/>
<path d="M552.85 408.224V346.656L556.306 346.912V408.224C556.306 412.747 557.202 416.203 558.994 418.592C560.786 420.981 563.346 422.176 566.674 422.176C566.93 422.176 567.058 422.432 567.058 422.944C567.058 423.456 566.93 423.712 566.674 423.712C564.882 423.712 563.004 423.669 561.042 423.584C559.164 423.499 557.074 423.456 554.77 423.456C552.295 423.456 549.906 423.499 547.602 423.584C545.383 423.669 543.292 423.712 541.33 423.712C541.074 423.712 540.946 423.456 540.946 422.944C540.946 422.432 541.074 422.176 541.33 422.176C545.084 422.176 547.943 420.981 549.906 418.592C551.868 416.203 552.85 412.747 552.85 408.224ZM617.874 425.504C617.874 425.76 617.66 425.888 617.234 425.888C616.807 425.973 616.508 425.973 616.338 425.888L554.77 354.208C551.698 350.709 549.052 348.363 546.834 347.168C544.7 345.888 542.61 345.248 540.562 345.248C540.306 345.248 540.178 344.992 540.178 344.48C540.178 343.968 540.306 343.712 540.562 343.712C542.183 343.712 543.847 343.755 545.554 343.84C547.26 343.925 548.839 343.968 550.29 343.968C552.85 343.968 555.154 343.925 557.202 343.84C559.335 343.755 560.956 343.712 562.066 343.712C563.175 343.712 563.986 344.224 564.498 345.248C565.01 346.187 566.29 347.893 568.338 350.368L616.85 407.456L617.874 425.504ZM617.874 359.328V425.504L614.418 421.664V359.328C614.418 354.805 613.522 351.349 611.73 348.96C610.023 346.485 607.463 345.248 604.05 345.248C603.879 345.248 603.794 344.992 603.794 344.48C603.794 343.968 603.879 343.712 604.05 343.712C605.842 343.712 607.719 343.797 609.682 343.968C611.644 344.053 613.778 344.096 616.082 344.096C618.3 344.096 620.476 344.053 622.61 343.968C624.743 343.797 626.706 343.712 628.498 343.712C628.754 343.712 628.882 343.968 628.882 344.48C628.882 344.992 628.754 345.248 628.498 345.248C625.084 345.248 622.439 346.485 620.562 348.96C618.77 351.349 617.874 354.805 617.874 359.328Z" fill="white"/>
<path d="M522.659 423.712H467.107C466.851 423.712 466.723 423.456 466.723 422.944C466.723 422.432 466.851 422.176 467.107 422.176C469.923 422.176 472.013 421.963 473.379 421.536C474.744 421.109 475.64 420.256 476.067 418.976C476.579 417.696 476.835 415.819 476.835 413.344V354.08C476.835 351.605 476.579 349.771 476.067 348.576C475.64 347.296 474.744 346.443 473.379 346.016C472.013 345.504 469.923 345.248 467.107 345.248C466.851 345.248 466.723 344.992 466.723 344.48C466.723 343.968 466.851 343.712 467.107 343.712H520.355C521.208 343.712 521.635 344.096 521.635 344.864L521.891 361.504C521.891 361.675 521.677 361.803 521.251 361.888C520.824 361.888 520.525 361.76 520.355 361.504C519.416 356.64 517.453 353.013 514.467 350.624C511.48 348.235 507.555 347.04 502.691 347.04H497.443C495.309 347.04 493.603 347.296 492.323 347.808C491.128 348.235 490.275 349.003 489.763 350.112C489.251 351.136 488.995 352.544 488.995 354.336V412.832C488.995 414.624 489.208 416.117 489.635 417.312C490.147 418.421 490.915 419.232 491.939 419.744C492.963 420.171 494.413 420.384 496.291 420.384H502.563C508.365 420.384 513.059 419.019 516.643 416.288C520.227 413.472 522.787 409.333 524.323 403.872C524.408 403.616 524.664 403.531 525.091 403.616C525.603 403.701 525.859 403.829 525.859 404C525.517 406.389 525.219 409.248 524.963 412.576C524.707 415.904 524.579 418.976 524.579 421.792C524.579 423.072 523.939 423.712 522.659 423.712ZM515.491 394.784C515.491 391.2 514.296 388.469 511.907 386.592C509.517 384.715 505.933 383.776 501.155 383.776H483.235V380.448H501.283C506.061 380.448 509.603 379.637 511.907 378.016C514.211 376.395 515.363 374.048 515.363 370.976C515.363 370.72 515.576 370.592 516.003 370.592C516.515 370.592 516.771 370.72 516.771 370.976C516.771 373.707 516.728 375.84 516.643 377.376C516.643 378.912 516.643 380.491 516.643 382.112C516.643 384.16 516.685 386.208 516.771 388.256C516.941 390.219 517.027 392.395 517.027 394.784C517.027 394.955 516.771 395.04 516.259 395.04C515.747 395.04 515.491 394.955 515.491 394.784Z" fill="white"/>
<path d="M457.107 343.712C457.363 343.712 457.491 343.968 457.491 344.48C457.491 344.992 457.363 345.248 457.107 345.248C454.121 345.248 451.347 346.4 448.787 348.704C446.227 351.008 444.137 354.336 442.515 358.688L417.555 423.584C417.47 423.925 417.001 424.096 416.147 424.096C415.379 424.096 414.91 423.925 414.739 423.584L382.355 354.336C380.905 351.264 379.411 349.003 377.875 347.552C376.339 346.016 374.462 345.248 372.243 345.248C371.987 345.248 371.859 344.992 371.859 344.48C371.859 343.968 371.987 343.712 372.243 343.712C373.353 343.712 374.249 343.755 374.931 343.84C375.699 343.925 376.595 344.011 377.619 344.096C378.729 344.096 380.179 344.096 381.971 344.096C386.067 344.096 389.395 344.096 391.955 344.096C394.601 344.011 396.777 343.925 398.483 343.84C400.275 343.755 401.854 343.712 403.219 343.712C403.475 343.712 403.603 343.968 403.603 344.48C403.603 344.992 403.475 345.248 403.219 345.248C399.635 345.248 397.203 346.144 395.923 347.936C394.729 349.728 394.942 352.288 396.563 355.616L421.267 409.12L416.019 417.952L439.059 358.176C440.51 354.336 440.595 351.221 439.315 348.832C438.035 346.443 435.219 345.248 430.867 345.248C430.611 345.248 430.483 344.992 430.483 344.48C430.483 343.968 430.611 343.712 430.867 343.712C433.171 343.712 435.39 343.797 437.523 343.968C439.657 344.053 442.43 344.096 445.843 344.096C448.233 344.096 450.153 344.053 451.603 343.968C453.139 343.797 454.974 343.712 457.107 343.712Z" fill="white"/>
<path d="M318.588 425.248C312.444 425.248 306.854 424.181 301.82 422.048C296.87 419.829 292.604 416.8 289.02 412.96C285.521 409.12 282.79 404.725 280.828 399.776C278.95 394.741 278.012 389.408 278.012 383.776C278.012 376.864 279.334 370.805 281.98 365.6C284.71 360.394 288.294 356.085 292.732 352.672C297.169 349.173 302.033 346.57 307.324 344.864C312.614 343.157 317.862 342.304 323.068 342.304C329.382 342.304 335.014 343.456 339.964 345.76C344.998 347.978 349.265 351.008 352.764 354.848C356.262 358.688 358.908 363.04 360.7 367.904C362.577 372.768 363.516 377.76 363.516 382.88C363.516 388.853 362.321 394.4 359.932 399.52C357.542 404.64 354.257 409.12 350.076 412.96C345.98 416.8 341.201 419.829 335.74 422.048C330.364 424.181 324.646 425.248 318.588 425.248ZM322.94 422.176C328.06 422.176 332.625 420.81 336.636 418.08C340.732 415.349 343.932 411.338 346.236 406.048C348.625 400.672 349.82 394.186 349.82 386.592C349.82 378.656 348.54 371.616 345.98 365.472C343.42 359.328 339.75 354.506 334.972 351.008C330.193 347.424 324.476 345.632 317.82 345.632C309.542 345.632 303.1 348.618 298.492 354.592C293.969 360.48 291.708 368.672 291.708 379.168C291.708 385.312 292.476 391.029 294.012 396.32C295.548 401.525 297.681 406.09 300.412 410.016C303.228 413.941 306.513 416.97 310.268 419.104C314.108 421.152 318.332 422.176 322.94 422.176Z" fill="white"/>
<path d="M253.233 423.712C251.953 423.712 249.82 422.091 246.833 418.848C243.847 415.605 240.22 410.955 235.953 404.896C231.772 398.752 227.079 391.456 221.873 383.008L232.113 379.936C239.025 390.261 244.913 398.539 249.777 404.768C254.727 410.912 259.079 415.349 262.833 418.08C266.673 420.811 270.343 422.176 273.841 422.176C274.012 422.176 274.097 422.432 274.097 422.944C274.097 423.456 274.012 423.712 273.841 423.712C268.465 423.712 264.071 423.712 260.657 423.712C257.329 423.712 254.855 423.712 253.233 423.712ZM224.177 343.328C231.601 343.328 237.319 344.821 241.329 347.808C245.425 350.709 247.473 354.72 247.473 359.84C247.473 364.704 246.065 369.056 243.249 372.896C240.519 376.736 236.935 379.723 232.497 381.856C228.145 383.989 223.452 385.056 218.417 385.056C217.393 385.056 216.284 385.056 215.089 385.056C213.895 384.971 212.828 384.885 211.889 384.8V413.344C211.889 415.819 212.103 417.696 212.529 418.976C212.956 420.256 213.852 421.109 215.217 421.536C216.668 421.963 218.759 422.176 221.489 422.176C221.745 422.176 221.873 422.432 221.873 422.944C221.873 423.456 221.745 423.712 221.489 423.712C219.356 423.712 216.967 423.669 214.321 423.584C211.676 423.499 208.775 423.456 205.617 423.456C202.631 423.456 199.772 423.499 197.041 423.584C194.311 423.669 191.879 423.712 189.745 423.712C189.489 423.712 189.361 423.456 189.361 422.944C189.361 422.432 189.489 422.176 189.745 422.176C192.561 422.176 194.652 421.963 196.017 421.536C197.383 421.109 198.321 420.256 198.833 418.976C199.345 417.696 199.601 415.819 199.601 413.344V354.08C199.601 351.605 199.345 349.771 198.833 348.576C198.407 347.296 197.511 346.443 196.145 346.016C194.78 345.504 192.689 345.248 189.873 345.248C189.703 345.248 189.617 344.992 189.617 344.48C189.617 343.968 189.703 343.712 189.873 343.712C192.007 343.712 194.396 343.797 197.041 343.968C199.772 344.053 202.631 344.096 205.617 344.096C208.348 344.096 211.42 343.968 214.833 343.712C218.247 343.456 221.361 343.328 224.177 343.328ZM234.801 364.32C234.801 359.371 234.204 355.573 233.009 352.928C231.9 350.197 230.321 348.32 228.273 347.296C226.225 346.272 223.836 345.76 221.105 345.76C217.777 345.76 215.388 346.4 213.937 347.68C212.572 348.875 211.889 351.093 211.889 354.336V381.344C213.084 381.515 214.364 381.643 215.729 381.728C217.095 381.813 218.289 381.856 219.313 381.856C225.031 381.856 229.041 380.448 231.345 377.632C233.649 374.731 234.801 370.293 234.801 364.32Z" fill="white"/>
<path d="M135.624 412.832C135.624 415.392 135.922 417.355 136.52 418.72C137.117 420 138.354 420.896 140.232 421.408C142.194 421.92 145.096 422.176 148.936 422.176C149.192 422.176 149.32 422.432 149.32 422.944C149.32 423.456 149.192 423.712 148.936 423.712C146.205 423.712 143.218 423.669 139.976 423.584C136.818 423.499 133.362 423.456 129.608 423.456C126.621 423.456 123.762 423.499 121.032 423.584C118.301 423.669 115.869 423.712 113.736 423.712C113.48 423.712 113.352 423.456 113.352 422.944C113.352 422.432 113.48 422.176 113.736 422.176C116.552 422.176 118.642 421.963 120.008 421.536C121.373 421.109 122.269 420.256 122.696 418.976C123.208 417.696 123.464 415.819 123.464 413.344V354.08C123.464 351.605 123.208 349.771 122.696 348.576C122.269 347.296 121.373 346.443 120.008 346.016C118.642 345.504 116.552 345.248 113.736 345.248C113.48 345.248 113.352 344.992 113.352 344.48C113.352 343.968 113.48 343.712 113.736 343.712C115.869 343.712 118.258 343.797 120.904 343.968C123.634 344.053 126.493 344.096 129.48 344.096C131.528 344.096 134.173 343.968 137.416 343.712C140.744 343.456 143.944 343.328 147.016 343.328C152.221 343.328 156.829 344.053 160.84 345.504C164.936 346.869 168.178 349.088 170.568 352.16C172.957 355.232 174.237 359.285 174.408 364.32C174.493 368.757 173.725 372.597 172.104 375.84C170.482 379.083 168.264 381.771 165.448 383.904C162.717 385.952 159.688 387.531 156.36 388.64C153.032 389.664 149.704 390.176 146.376 390.176C145.437 390.176 144.413 390.133 143.304 390.048C142.28 389.963 141.256 389.792 140.232 389.536C139.976 389.451 139.89 389.152 139.976 388.64C140.061 388.043 140.274 387.787 140.616 387.872C141.298 388.043 142.066 388.171 142.92 388.256C143.773 388.341 144.498 388.384 145.096 388.384C147.912 388.384 150.514 387.616 152.904 386.08C155.293 384.544 157.213 382.197 158.664 379.04C160.2 375.883 160.968 371.915 160.968 367.136C160.968 362.613 160.242 358.773 158.792 355.616C157.341 352.459 155.293 350.069 152.648 348.448C150.088 346.741 146.93 345.888 143.176 345.888C141.213 345.888 139.677 346.101 138.568 346.528C137.458 346.869 136.69 347.637 136.264 348.832C135.837 350.027 135.624 351.861 135.624 354.336V412.832Z" fill="white"/>
<path d="M446.981 238.224V176.656L450.437 176.912V238.224C450.437 242.747 451.333 246.203 453.125 248.592C454.917 250.981 457.477 252.176 460.805 252.176C461.061 252.176 461.189 252.432 461.189 252.944C461.189 253.456 461.061 253.712 460.805 253.712C459.013 253.712 457.135 253.669 455.173 253.584C453.295 253.499 451.205 253.456 448.901 253.456C446.426 253.456 444.037 253.499 441.733 253.584C439.514 253.669 437.423 253.712 435.461 253.712C435.205 253.712 435.077 253.456 435.077 252.944C435.077 252.432 435.205 252.176 435.461 252.176C439.215 252.176 442.074 250.981 444.037 248.592C445.999 246.203 446.981 242.747 446.981 238.224ZM512.005 255.504C512.005 255.76 511.791 255.888 511.365 255.888C510.938 255.973 510.639 255.973 510.469 255.888L448.901 184.208C445.829 180.709 443.183 178.363 440.965 177.168C438.831 175.888 436.741 175.248 434.693 175.248C434.437 175.248 434.309 174.992 434.309 174.48C434.309 173.968 434.437 173.712 434.693 173.712C436.314 173.712 437.978 173.755 439.685 173.84C441.391 173.925 442.97 173.968 444.421 173.968C446.981 173.968 449.285 173.925 451.333 173.84C453.466 173.755 455.087 173.712 456.197 173.712C457.306 173.712 458.117 174.224 458.629 175.248C459.141 176.187 460.421 177.893 462.469 180.368L510.981 237.456L512.005 255.504ZM512.005 189.328V255.504L508.549 251.664V189.328C508.549 184.805 507.653 181.349 505.861 178.96C504.154 176.485 501.594 175.248 498.181 175.248C498.01 175.248 497.925 174.992 497.925 174.48C497.925 173.968 498.01 173.712 498.181 173.712C499.973 173.712 501.85 173.797 503.813 173.968C505.775 174.053 507.909 174.096 510.213 174.096C512.431 174.096 514.607 174.053 516.741 173.968C518.874 173.797 520.837 173.712 522.629 173.712C522.885 173.712 523.013 173.968 523.013 174.48C523.013 174.992 522.885 175.248 522.629 175.248C519.215 175.248 516.57 176.485 514.693 178.96C512.901 181.349 512.005 184.805 512.005 189.328Z" fill="white"/>
<path d="M410.26 243.344C410.26 245.819 410.474 247.696 410.9 248.976C411.412 250.256 412.351 251.109 413.716 251.536C415.082 251.963 417.172 252.176 419.988 252.176C420.244 252.176 420.372 252.432 420.372 252.944C420.372 253.456 420.244 253.712 419.988 253.712C417.855 253.712 415.466 253.669 412.82 253.584C410.175 253.499 407.231 253.456 403.988 253.456C401.002 253.456 398.143 253.499 395.412 253.584C392.682 253.669 390.25 253.712 388.116 253.712C387.86 253.712 387.732 253.456 387.732 252.944C387.732 252.432 387.86 252.176 388.116 252.176C390.847 252.176 392.938 251.963 394.388 251.536C395.839 251.109 396.778 250.256 397.204 248.976C397.716 247.696 397.972 245.819 397.972 243.344V184.08C397.972 181.605 397.716 179.771 397.204 178.576C396.778 177.296 395.839 176.443 394.388 176.016C392.938 175.504 390.847 175.248 388.116 175.248C387.86 175.248 387.732 174.992 387.732 174.48C387.732 173.968 387.86 173.712 388.116 173.712C390.25 173.712 392.682 173.797 395.412 173.968C398.143 174.053 401.002 174.096 403.988 174.096C407.231 174.096 410.175 174.053 412.82 173.968C415.551 173.797 417.94 173.712 419.988 173.712C420.244 173.712 420.372 173.968 420.372 174.48C420.372 174.992 420.244 175.248 419.988 175.248C417.258 175.248 415.167 175.504 413.716 176.016C412.351 176.528 411.412 177.424 410.9 178.704C410.474 179.984 410.26 181.861 410.26 184.336V243.344Z" fill="white"/>
<path d="M834.457 68.2239V6.65591L837.913 6.91191V68.2239C837.913 72.7466 838.809 76.2026 840.601 78.5919C842.393 80.9812 844.953 82.1759 848.281 82.1759C848.537 82.1759 848.665 82.4319 848.665 82.9439C848.665 83.4559 848.537 83.7119 848.281 83.7119C846.489 83.7119 844.612 83.6693 842.649 83.5839C840.772 83.4986 838.681 83.4559 836.377 83.4559C833.902 83.4559 831.513 83.4986 829.209 83.5839C826.991 83.6693 824.9 83.7119 822.937 83.7119C822.681 83.7119 822.553 83.4559 822.553 82.9439C822.553 82.4319 822.681 82.1759 822.937 82.1759C826.692 82.1759 829.551 80.9812 831.513 78.5919C833.476 76.2026 834.457 72.7466 834.457 68.2239ZM899.481 85.5039C899.481 85.7599 899.268 85.8879 898.841 85.8879C898.415 85.9732 898.116 85.9732 897.945 85.8879L836.377 14.2079C833.305 10.7092 830.66 8.36257 828.441 7.16791C826.308 5.88791 824.217 5.24791 822.169 5.24791C821.913 5.24791 821.785 4.99191 821.785 4.47991C821.785 3.96791 821.913 3.71191 822.169 3.71191C823.79 3.71191 825.454 3.75458 827.161 3.83991C828.868 3.92524 830.446 3.96791 831.897 3.96791C834.457 3.96791 836.761 3.92524 838.809 3.83991C840.942 3.75458 842.564 3.71191 843.673 3.71191C844.782 3.71191 845.593 4.22391 846.105 5.24791C846.617 6.18657 847.897 7.89324 849.945 10.3679L898.457 67.4559L899.481 85.5039ZM899.481 19.3279V85.5039L896.025 81.6639V19.3279C896.025 14.8052 895.129 11.3492 893.337 8.95991C891.63 6.48524 889.07 5.24791 885.657 5.24791C885.486 5.24791 885.401 4.99191 885.401 4.47991C885.401 3.96791 885.486 3.71191 885.657 3.71191C887.449 3.71191 889.327 3.79725 891.289 3.96791C893.252 4.05324 895.385 4.09591 897.689 4.09591C899.908 4.09591 902.084 4.05324 904.217 3.96791C906.351 3.79725 908.313 3.71191 910.105 3.71191C910.361 3.71191 910.489 3.96791 910.489 4.47991C910.489 4.99191 910.361 5.24791 910.105 5.24791C906.692 5.24791 904.047 6.48524 902.169 8.95991C900.377 11.3492 899.481 14.8052 899.481 19.3279Z" fill="white"/>
<path d="M793.952 83.7121C792.672 83.7121 790.539 82.0908 787.552 78.8481C784.565 75.6055 780.939 70.9548 776.672 64.8961C772.491 58.7521 767.797 51.4561 762.592 43.0081L772.832 39.9361C779.744 50.2615 785.632 58.5388 790.496 64.7681C795.445 70.9121 799.797 75.3495 803.552 78.0801C807.392 80.8108 811.061 82.1761 814.56 82.1761C814.731 82.1761 814.816 82.4321 814.816 82.9441C814.816 83.4561 814.731 83.7121 814.56 83.7121C809.184 83.7121 804.789 83.7121 801.376 83.7121C798.048 83.7121 795.573 83.7121 793.952 83.7121ZM764.896 3.32812C772.32 3.32812 778.037 4.82146 782.048 7.80812C786.144 10.7095 788.192 14.7201 788.192 19.8401C788.192 24.7041 786.784 29.0561 783.968 32.8961C781.237 36.7361 777.653 39.7228 773.216 41.8561C768.864 43.9895 764.171 45.0561 759.136 45.0561C758.112 45.0561 757.003 45.0561 755.808 45.0561C754.613 44.9708 753.547 44.8855 752.608 44.8001V73.3441C752.608 75.8188 752.821 77.6961 753.248 78.9761C753.675 80.2561 754.571 81.1095 755.936 81.5361C757.387 81.9628 759.477 82.1761 762.208 82.1761C762.464 82.1761 762.592 82.4321 762.592 82.9441C762.592 83.4561 762.464 83.7121 762.208 83.7121C760.075 83.7121 757.685 83.6695 755.04 83.5841C752.395 83.4988 749.493 83.4561 746.336 83.4561C743.349 83.4561 740.491 83.4988 737.76 83.5841C735.029 83.6695 732.597 83.7121 730.464 83.7121C730.208 83.7121 730.08 83.4561 730.08 82.9441C730.08 82.4321 730.208 82.1761 730.464 82.1761C733.28 82.1761 735.371 81.9628 736.736 81.5361C738.101 81.1095 739.04 80.2561 739.552 78.9761C740.064 77.6961 740.32 75.8188 740.32 73.3441V14.0801C740.32 11.6055 740.064 9.77079 739.552 8.57613C739.125 7.29612 738.229 6.44279 736.864 6.01612C735.499 5.50412 733.408 5.24812 730.592 5.24812C730.421 5.24812 730.336 4.99212 730.336 4.48013C730.336 3.96813 730.421 3.71213 730.592 3.71213C732.725 3.71213 735.115 3.79746 737.76 3.96812C740.491 4.05346 743.349 4.09612 746.336 4.09612C749.067 4.09612 752.139 3.96812 755.552 3.71213C758.965 3.45613 762.08 3.32812 764.896 3.32812ZM775.52 24.3201C775.52 19.3708 774.923 15.5735 773.728 12.9281C772.619 10.1975 771.04 8.32012 768.992 7.29613C766.944 6.27213 764.555 5.76012 761.824 5.76012C758.496 5.76012 756.107 6.40012 754.656 7.68012C753.291 8.87479 752.608 11.0935 752.608 14.3361V41.3441C753.803 41.5148 755.083 41.6428 756.448 41.7281C757.813 41.8135 759.008 41.8561 760.032 41.8561C765.749 41.8561 769.76 40.4481 772.064 37.6321C774.368 34.7308 775.52 30.2935 775.52 24.3201Z" fill="white"/>
<path d="M668.816 85.2477C662.672 85.2477 657.083 84.181 652.048 82.0477C647.099 79.829 642.832 76.7997 639.248 72.9597C635.75 69.1197 633.019 64.725 631.056 59.7757C629.179 54.741 628.24 49.4077 628.24 43.7757C628.24 36.8637 629.563 30.8051 632.208 25.5997C634.939 20.3944 638.523 16.085 642.96 12.6717C647.398 9.17305 652.262 6.57038 657.552 4.86371C662.843 3.15704 668.091 2.30371 673.296 2.30371C679.611 2.30371 685.243 3.45571 690.192 5.75971C695.227 7.97838 699.494 11.0077 702.992 14.8477C706.491 18.6877 709.136 23.0397 710.928 27.9037C712.806 32.7677 713.744 37.7597 713.744 42.8797C713.744 48.853 712.55 54.3997 710.16 59.5197C707.771 64.6397 704.486 69.1197 700.304 72.9597C696.208 76.7997 691.43 79.829 685.968 82.0477C680.592 84.181 674.875 85.2477 668.816 85.2477ZM673.168 82.1757C678.288 82.1757 682.854 80.8104 686.864 78.0797C690.96 75.349 694.16 71.3384 696.464 66.0477C698.854 60.6717 700.048 54.1864 700.048 46.5917C700.048 38.6557 698.768 31.6157 696.208 25.4717C693.648 19.3277 689.979 14.5064 685.2 11.0077C680.422 7.42371 674.704 5.63171 668.048 5.63171C659.771 5.63171 653.328 8.61838 648.72 14.5917C644.198 20.4797 641.936 28.6717 641.936 39.1677C641.936 45.3117 642.704 51.029 644.24 56.3197C645.776 61.5251 647.91 66.0904 650.64 70.0157C653.456 73.941 656.742 76.9704 660.496 79.1037C664.336 81.1517 668.56 82.1757 673.168 82.1757Z" fill="white"/>
<path d="M581.26 40.5761L582.668 38.5281C588.215 38.5281 593.036 39.4668 597.132 41.3441C601.313 43.2215 604.556 45.8241 606.86 49.1521C609.164 52.3948 610.316 56.1495 610.316 60.4161C610.316 64.8535 609.078 68.9068 606.604 72.5761C604.214 76.1601 600.886 79.0188 596.62 81.1521C592.353 83.2001 587.532 84.2241 582.156 84.2241C579.681 84.2241 576.695 84.0961 573.196 83.8401C569.697 83.5841 566.497 83.4561 563.596 83.4561C560.609 83.4561 557.751 83.4988 555.02 83.5841C552.289 83.6695 549.857 83.7121 547.724 83.7121C547.468 83.7121 547.34 83.4561 547.34 82.9441C547.34 82.4321 547.468 82.1761 547.724 82.1761C550.369 82.1761 552.375 81.9628 553.74 81.5361C555.191 81.1095 556.172 80.2561 556.684 78.9761C557.281 77.6961 557.58 75.8188 557.58 73.3441V14.0801C557.58 11.6055 557.324 9.77079 556.812 8.57613C556.3 7.29612 555.319 6.44279 553.868 6.01612C552.503 5.50412 550.497 5.24812 547.852 5.24812C547.681 5.24812 547.596 4.99212 547.596 4.48013C547.596 3.96813 547.681 3.71213 547.852 3.71213C549.985 3.71213 552.375 3.79746 555.02 3.96812C557.751 4.05346 560.609 4.09612 563.596 4.09612C565.985 4.09612 568.545 3.96812 571.276 3.71213C574.006 3.45613 576.609 3.32812 579.084 3.32812C584.204 3.32812 588.471 4.01079 591.884 5.37612C595.383 6.65613 598.028 8.53346 599.82 11.0081C601.612 13.4828 602.508 16.4695 602.508 19.9681C602.508 24.7468 600.673 29.0135 597.004 32.7681C593.335 36.4375 588.086 39.0401 581.26 40.5761ZM576.908 5.88812C575.201 5.88812 573.793 6.10146 572.684 6.52812C571.66 6.95479 570.934 7.76545 570.508 8.96012C570.081 10.1548 569.868 11.9468 569.868 14.3361V39.4241L565.26 38.5281C568.076 38.6135 570.38 38.6988 572.172 38.7841C573.964 38.7841 574.945 38.7841 575.116 38.7841C580.407 38.7841 584.289 37.0775 586.764 33.6641C589.239 30.2508 590.476 26.0695 590.476 21.1201C590.476 17.9628 589.964 15.2321 588.94 12.9281C588.001 10.6241 586.508 8.87479 584.46 7.68012C582.497 6.48546 579.98 5.88812 576.908 5.88812ZM580.108 81.2801C586.167 81.2801 590.561 79.7441 593.292 76.6721C596.023 73.5148 597.388 69.1201 597.388 63.4881C597.388 57.1735 595.724 52.0108 592.396 48.0001C589.153 43.9895 584.204 41.9841 577.548 41.9841C576.268 41.9841 574.561 42.0268 572.428 42.1121C570.295 42.1121 568.076 42.3255 565.772 42.7521L569.868 41.2161V73.3441C569.868 75.1361 570.081 76.6295 570.508 77.8241C570.934 79.0188 571.873 79.9148 573.324 80.5121C574.86 81.0241 577.121 81.2801 580.108 81.2801Z" fill="white"/>
<path d="M463.168 47.7439L480.064 19.9679C482.795 15.5306 483.819 11.9892 483.136 9.34391C482.539 6.61324 480.235 5.24791 476.224 5.24791C476.054 5.24791 475.968 4.99191 475.968 4.47991C475.968 3.96791 476.054 3.71191 476.224 3.71191C478.87 3.71191 481.344 3.79725 483.648 3.96791C485.952 4.05324 488.982 4.09591 492.736 4.09591C494.87 4.09591 496.576 4.05324 497.856 3.96791C499.222 3.79725 500.843 3.71191 502.72 3.71191C502.891 3.71191 502.976 3.96791 502.976 4.47991C502.976 4.99191 502.891 5.24791 502.72 5.24791C500.928 5.24791 498.88 5.93058 496.576 7.29591C494.272 8.57591 492.011 10.4106 489.792 12.7999C487.574 15.1039 485.483 17.8346 483.52 20.9919L465.728 49.7919L463.168 47.7439ZM457.792 48.7679L437.184 17.2799C434.112 12.5866 431.552 9.42924 429.504 7.80791C427.456 6.10124 425.494 5.24791 423.616 5.24791C423.36 5.24791 423.232 4.99191 423.232 4.47991C423.232 3.96791 423.36 3.71191 423.616 3.71191C424.982 3.71191 426.39 3.79725 427.84 3.96791C429.291 4.05324 430.656 4.09591 431.936 4.09591C434.326 4.09591 436.758 4.09591 439.232 4.09591C441.792 4.01058 444.182 3.92524 446.4 3.83991C448.704 3.75458 450.624 3.71191 452.16 3.71191C452.331 3.71191 452.416 3.96791 452.416 4.47991C452.416 4.99191 452.331 5.24791 452.16 5.24791C449.344 5.24791 447.638 5.97324 447.04 7.42391C446.443 8.87458 446.912 10.7092 448.448 12.9279L468.032 43.0079L457.792 48.7679ZM456.768 44.0319L468.928 42.8799V73.3439C468.928 75.8186 469.142 77.6959 469.568 78.9759C469.995 80.2559 470.891 81.1092 472.256 81.5359C473.622 81.9626 475.712 82.1759 478.528 82.1759C478.784 82.1759 478.912 82.4319 478.912 82.9439C478.912 83.4559 478.784 83.7119 478.528 83.7119C476.395 83.7119 474.006 83.6693 471.36 83.5839C468.8 83.4986 465.942 83.4559 462.784 83.4559C459.798 83.4559 456.896 83.4986 454.08 83.5839C451.35 83.6693 448.918 83.7119 446.784 83.7119C446.614 83.7119 446.528 83.4559 446.528 82.9439C446.528 82.4319 446.614 82.1759 446.784 82.1759C449.6 82.1759 451.691 81.9626 453.056 81.5359C454.507 81.1092 455.488 80.2559 456 78.9759C456.512 77.6959 456.768 75.8186 456.768 73.3439V44.0319Z" fill="white"/>
<path d="M363.117 6.4C357.911 6.4 353.644 8.02133 350.316 11.264C347.074 14.5067 344.514 19.2853 342.637 25.6C342.637 25.856 342.38 25.984 341.868 25.984C341.442 25.8987 341.229 25.7707 341.229 25.6C341.399 24.4053 341.57 22.784 341.741 20.736C341.911 18.6027 342.082 16.2987 342.253 13.824C342.509 11.3493 342.679 8.96 342.765 6.656C342.935 4.26667 343.021 2.34667 343.021 0.896004C343.021 0.469337 343.234 0.256004 343.661 0.256004C344.173 0.256004 344.428 0.469337 344.428 0.896004C344.428 1.74934 344.855 2.38934 345.708 2.816C346.647 3.15734 347.671 3.41334 348.781 3.584C349.89 3.66934 350.828 3.71201 351.596 3.71201C358.935 3.968 367.511 4.096 377.325 4.096C383.383 4.096 388.162 4.05333 391.661 3.968C395.245 3.79734 398.701 3.71201 402.029 3.71201C405.101 3.71201 407.405 3.54134 408.941 3.2C410.562 2.77334 411.586 1.87734 412.013 0.512001C412.098 0.170667 412.354 0 412.781 0C413.207 0 413.421 0.170667 413.421 0.512001C413.335 1.87734 413.207 3.75467 413.036 6.144C412.866 8.448 412.738 10.9227 412.653 13.568C412.567 16.128 412.482 18.5173 412.397 20.736C412.311 22.8693 412.269 24.4907 412.269 25.6C412.269 25.7707 412.013 25.856 411.501 25.856C411.074 25.856 410.818 25.7707 410.733 25.6C409.794 18.8587 407.746 13.9947 404.589 11.008C401.431 7.936 397.207 6.4 391.917 6.4C389.613 6.4 387.863 6.61333 386.669 7.04C385.474 7.46667 384.663 8.27733 384.237 9.472C383.81 10.5813 383.596 12.2027 383.596 14.336V73.344C383.596 75.8187 383.853 77.696 384.365 78.976C384.962 80.256 386.029 81.1093 387.565 81.536C389.186 81.9627 391.618 82.176 394.861 82.176C395.117 82.176 395.245 82.432 395.245 82.944C395.245 83.456 395.117 83.712 394.861 83.712C392.557 83.712 389.911 83.6693 386.924 83.584C384.023 83.4987 380.823 83.456 377.325 83.456C373.997 83.456 370.882 83.4987 367.98 83.584C365.079 83.6693 362.391 83.712 359.917 83.712C359.746 83.712 359.661 83.456 359.661 82.944C359.661 82.432 359.746 82.176 359.917 82.176C363.159 82.176 365.591 81.9627 367.213 81.536C368.834 81.1093 369.901 80.256 370.413 78.976C371.01 77.696 371.309 75.8187 371.309 73.344V14.08C371.309 11.9467 371.095 10.368 370.669 9.344C370.327 8.23467 369.559 7.46667 368.365 7.04C367.17 6.61333 365.421 6.4 363.117 6.4Z" fill="white"/>
<path d="M314.455 19.3279C314.455 14.8906 313.431 11.4346 311.383 8.95991C309.421 6.48524 306.562 5.24791 302.807 5.24791C302.637 5.24791 302.551 4.99191 302.551 4.47991C302.551 3.96791 302.637 3.71191 302.807 3.71191C304.941 3.71191 307.074 3.79725 309.207 3.96791C311.426 4.05324 313.815 4.09591 316.375 4.09591C318.594 4.09591 320.77 4.05324 322.903 3.96791C325.122 3.79725 327.127 3.71191 328.919 3.71191C329.09 3.71191 329.175 3.96791 329.175 4.47991C329.175 4.99191 329.09 5.24791 328.919 5.24791C325.506 5.24791 322.903 6.48524 321.111 8.95991C319.319 11.4346 318.423 14.8906 318.423 19.3279V55.1679C318.423 61.3972 317.101 66.7732 314.455 71.2959C311.895 75.8186 308.268 79.3172 303.575 81.7919C298.882 84.2666 293.378 85.5039 287.063 85.5039C280.834 85.5039 275.287 84.3092 270.423 81.9199C265.559 79.4452 261.762 75.9466 259.031 71.4239C256.386 66.9012 255.063 61.5252 255.063 55.2959V14.0799C255.063 11.6052 254.807 9.77058 254.295 8.57591C253.868 7.29591 252.93 6.44257 251.479 6.01591C250.114 5.50391 248.066 5.24791 245.335 5.24791C245.079 5.24791 244.951 4.99191 244.951 4.47991C244.951 3.96791 245.079 3.71191 245.335 3.71191C247.469 3.71191 249.858 3.79725 252.503 3.96791C255.234 4.05324 258.092 4.09591 261.079 4.09591C264.236 4.09591 267.138 4.05324 269.783 3.96791C272.429 3.79725 274.818 3.71191 276.951 3.71191C277.207 3.71191 277.335 3.96791 277.335 4.47991C277.335 4.99191 277.207 5.24791 276.951 5.24791C274.135 5.24791 272.045 5.50391 270.679 6.01591C269.314 6.52791 268.375 7.42391 267.863 8.70391C267.436 9.98391 267.223 11.8612 267.223 14.3359V50.8159C267.223 61.2266 269.357 68.8639 273.623 73.7279C277.975 78.5919 283.863 81.0239 291.287 81.0239C298.541 81.0239 304.215 78.8052 308.311 74.3679C312.407 69.8452 314.455 63.4879 314.455 55.2959V19.3279Z" fill="white"/>
<path d="M172.659 52.3516L174.323 49.1516H210.163L211.059 52.3516H172.659ZM240.755 82.1756C241.096 82.1756 241.267 82.4316 241.267 82.9436C241.267 83.4556 241.096 83.7116 240.755 83.7116C238.195 83.7116 235.549 83.6262 232.819 83.4556C230.173 83.2849 227.613 83.1996 225.139 83.1996C222.323 83.1996 219.848 83.2849 217.715 83.4556C215.667 83.6262 213.363 83.7116 210.803 83.7116C210.461 83.7116 210.291 83.4556 210.291 82.9436C210.291 82.4316 210.461 82.1756 210.803 82.1756C214.643 82.1756 216.947 81.4929 217.715 80.1276C218.483 78.7622 217.843 76.0742 215.795 72.0636L189.043 17.6636L194.291 9.08757L168.947 66.1756C166.728 71.3809 166.643 75.3489 168.691 78.0796C170.824 80.8102 174.408 82.1756 179.443 82.1756C179.869 82.1756 180.083 82.4316 180.083 82.9436C180.083 83.4556 179.869 83.7116 179.443 83.7116C176.883 83.7116 174.536 83.6262 172.403 83.4556C170.269 83.2849 167.581 83.1996 164.339 83.1996C161.096 83.1996 158.493 83.2849 156.531 83.4556C154.653 83.6262 152.307 83.7116 149.491 83.7116C149.149 83.7116 148.979 83.4556 148.979 82.9436C148.979 82.4316 149.149 82.1756 149.491 82.1756C151.795 82.1756 153.757 81.7062 155.379 80.7676C157.085 79.8289 158.749 78.1222 160.371 75.6476C161.992 73.0876 163.784 69.5462 165.747 65.0236L193.267 2.94357C193.437 2.68757 193.821 2.55957 194.419 2.55957C195.016 2.55957 195.357 2.68757 195.443 2.94357L226.803 66.1756C228.765 70.2716 230.515 73.5142 232.051 75.9036C233.587 78.2076 235.037 79.8289 236.403 80.7676C237.768 81.7062 239.219 82.1756 240.755 82.1756Z" fill="white"/>
<path d="M135.555 83.7119H80.0031C79.7471 83.7119 79.6191 83.4559 79.6191 82.9439C79.6191 82.4319 79.7471 82.1759 80.0031 82.1759C82.8191 82.1759 84.9098 81.9626 86.2751 81.5359C87.6405 81.1092 88.5365 80.2559 88.9631 78.9759C89.4751 77.6959 89.7311 75.8186 89.7311 73.3439V14.0799C89.7311 11.6052 89.4751 9.77058 88.9631 8.57591C88.5365 7.29591 87.6405 6.44257 86.2751 6.01591C84.9098 5.50391 82.8191 5.24791 80.0031 5.24791C79.7471 5.24791 79.6191 4.99191 79.6191 4.47991C79.6191 3.96791 79.7471 3.71191 80.0031 3.71191H133.251C134.104 3.71191 134.531 4.09591 134.531 4.86391L134.787 21.5039C134.787 21.6746 134.574 21.8026 134.147 21.8879C133.72 21.8879 133.422 21.7599 133.251 21.5039C132.312 16.6399 130.35 13.0132 127.363 10.6239C124.376 8.23458 120.451 7.03991 115.587 7.03991H110.339C108.206 7.03991 106.499 7.29591 105.219 7.80791C104.024 8.23458 103.171 9.00258 102.659 10.1119C102.147 11.1359 101.891 12.5439 101.891 14.3359V72.8319C101.891 74.6239 102.104 76.1172 102.531 77.3119C103.043 78.4212 103.811 79.2319 104.835 79.7439C105.859 80.1706 107.31 80.3839 109.187 80.3839H115.459C121.262 80.3839 125.955 79.0186 129.539 76.2879C133.123 73.4719 135.683 69.3333 137.219 63.8719C137.304 63.6159 137.56 63.5306 137.987 63.6159C138.499 63.7012 138.755 63.8292 138.755 63.9999C138.414 66.3892 138.115 69.2479 137.859 72.5759C137.603 75.9039 137.475 78.9759 137.475 81.7919C137.475 83.0719 136.835 83.7119 135.555 83.7119ZM128.387 54.7839C128.387 51.1999 127.192 48.4692 124.803 46.5919C122.414 44.7146 118.83 43.7759 114.051 43.7759H96.1311V40.4479H114.179C118.958 40.4479 122.499 39.6372 124.803 38.0159C127.107 36.3946 128.259 34.0479 128.259 30.9759C128.259 30.7199 128.472 30.5919 128.899 30.5919C129.411 30.5919 129.667 30.7199 129.667 30.9759C129.667 33.7066 129.624 35.8399 129.539 37.3759C129.539 38.9119 129.539 40.4906 129.539 42.1119C129.539 44.1599 129.582 46.2079 129.667 48.2559C129.838 50.2186 129.923 52.3946 129.923 54.7839C129.923 54.9546 129.667 55.0399 129.155 55.0399C128.643 55.0399 128.387 54.9546 128.387 54.7839Z" fill="white"/>
<path d="M33.92 40.5761L35.328 38.5281C40.8747 38.5281 45.696 39.4668 49.792 41.3441C53.9733 43.2215 57.216 45.8241 59.52 49.1521C61.824 52.3948 62.976 56.1495 62.976 60.4161C62.976 64.8535 61.7387 68.9068 59.264 72.5761C56.8747 76.1601 53.5467 79.0188 49.28 81.1521C45.0133 83.2001 40.192 84.2241 34.816 84.2241C32.3413 84.2241 29.3547 84.0961 25.856 83.8401C22.3573 83.5841 19.1573 83.4561 16.256 83.4561C13.2693 83.4561 10.4107 83.4988 7.68 83.5841C4.94933 83.6695 2.51733 83.7121 0.384 83.7121C0.128 83.7121 0 83.4561 0 82.9441C0 82.4321 0.128 82.1761 0.384 82.1761C3.02933 82.1761 5.03467 81.9628 6.4 81.5361C7.85067 81.1095 8.832 80.2561 9.344 78.9761C9.94133 77.6961 10.24 75.8188 10.24 73.3441V14.0801C10.24 11.6055 9.984 9.77079 9.472 8.57613C8.96 7.29612 7.97867 6.44279 6.528 6.01612C5.16267 5.50412 3.15733 5.24812 0.512 5.24812C0.341333 5.24812 0.256 4.99212 0.256 4.48013C0.256 3.96813 0.341333 3.71213 0.512 3.71213C2.64533 3.71213 5.03467 3.79746 7.68 3.96812C10.4107 4.05346 13.2693 4.09612 16.256 4.09612C18.6453 4.09612 21.2053 3.96812 23.936 3.71213C26.6667 3.45613 29.2693 3.32812 31.744 3.32812C36.864 3.32812 41.1307 4.01079 44.544 5.37612C48.0427 6.65613 50.688 8.53346 52.48 11.0081C54.272 13.4828 55.168 16.4695 55.168 19.9681C55.168 24.7468 53.3333 29.0135 49.664 32.7681C45.9947 36.4375 40.7467 39.0401 33.92 40.5761ZM29.568 5.88812C27.8613 5.88812 26.4533 6.10146 25.344 6.52812C24.32 6.95479 23.5947 7.76545 23.168 8.96012C22.7413 10.1548 22.528 11.9468 22.528 14.3361V39.4241L17.92 38.5281C20.736 38.6135 23.04 38.6988 24.832 38.7841C26.624 38.7841 27.6053 38.7841 27.776 38.7841C33.0667 38.7841 36.9493 37.0775 39.424 33.6641C41.8987 30.2508 43.136 26.0695 43.136 21.1201C43.136 17.9628 42.624 15.2321 41.6 12.9281C40.6613 10.6241 39.168 8.87479 37.12 7.68012C35.1573 6.48546 32.64 5.88812 29.568 5.88812ZM32.768 81.2801C38.8267 81.2801 43.2213 79.7441 45.952 76.6721C48.6827 73.5148 50.048 69.1201 50.048 63.4881C50.048 57.1735 48.384 52.0108 45.056 48.0001C41.8133 43.9895 36.864 41.9841 30.208 41.9841C28.928 41.9841 27.2213 42.0268 25.088 42.1121C22.9547 42.1121 20.736 42.3255 18.432 42.7521L22.528 41.2161V73.3441C22.528 75.1361 22.7413 76.6295 23.168 77.8241C23.5947 79.0188 24.5333 79.9148 25.984 80.5121C27.52 81.0241 29.7813 81.2801 32.768 81.2801Z" fill="white"/>
</svg>
