<svg width="46" height="46" viewBox="0 0 46 46" fill="none" xmlns="http://www.w3.org/2000/svg">
<path d="M7 39.3334V13.2314C7 12.6792 7.44772 12.2314 8 12.2314H38C38.5523 12.2314 39 12.6792 39 13.2314V39.3334C39 39.8857 38.5523 40.3334 38 40.3334H8C7.44772 40.3334 7 39.8857 7 39.3334Z" stroke="white" stroke-width="2" stroke-linejoin="round"/>
<path d="M29.5306 15.1924C29.5306 18.7963 26.6092 21.7178 23.0055 21.7178C19.4018 21.7178 16.4805 18.7963 16.4805 15.1924" stroke="white" stroke-width="2"/>
<path d="M29.5306 12.1924C29.5306 8.5885 26.6092 5.66698 23.0055 5.66698C19.4018 5.66698 16.4805 8.5885 16.4805 12.1924" stroke="white" stroke-width="2"/>
</svg>
