<svg width="44" height="44" viewBox="0 0 44 44" fill="none" xmlns="http://www.w3.org/2000/svg">
<rect width="44" height="44" rx="22" fill="#3F2B2E"/>
<path d="M21.9994 28.3504C18.4971 28.3504 15.6465 25.5007 15.6465 21.9975C15.6465 18.4943 18.4971 15.6445 21.9994 15.6445C25.5017 15.6445 28.3524 18.4943 28.3524 21.9975C28.3524 25.5007 25.5017 28.3504 21.9994 28.3504ZM21.9994 17.4597C19.4973 17.4597 17.4616 19.4953 17.4616 21.9975C17.4616 24.4996 19.4973 26.5353 21.9994 26.5353C24.5016 26.5353 26.5372 24.4996 26.5372 21.9975C26.5372 19.4953 24.5016 17.4597 21.9994 17.4597Z" fill="#FFFEFA"/>
<path d="M29.0582 16.3509C29.8379 16.3509 30.47 15.7188 30.47 14.9391C30.47 14.1594 29.8379 13.5273 29.0582 13.5273C28.2786 13.5273 27.6465 14.1594 27.6465 14.9391C27.6465 15.7188 28.2786 16.3509 29.0582 16.3509Z" fill="#FFFEFA"/>
<path d="M27.5385 34H16.4615C12.8994 34 10 31.1015 10 27.5385V16.4615C10 12.8985 12.8994 10 16.4615 10H27.5385C31.1006 10 34 12.8985 34 16.4615V27.5385C34 31.1015 31.1006 34 27.5385 34ZM16.4615 11.8462C13.9166 11.8462 11.8462 13.9166 11.8462 16.4615V27.5385C11.8462 30.0834 13.9166 32.1538 16.4615 32.1538H27.5385C30.0834 32.1538 32.1538 30.0834 32.1538 27.5385V16.4615C32.1538 13.9166 30.0834 11.8462 27.5385 11.8462H16.4615Z" fill="#FFFEFA"/>
</svg>
