<svg width="44" height="44" viewBox="0 0 44 44" fill="none" xmlns="http://www.w3.org/2000/svg">
<rect width="44" height="44" rx="22" fill="#3F2B2E"/>
<path d="M22 10.9844C15.3725 10.9844 10 15.1986 10 20.397C10 23.7579 12.2461 26.7069 15.6248 28.3721C15.441 29.0028 14.4436 32.4292 14.4039 32.6984C14.4039 32.6984 14.38 32.9006 14.5117 32.9778C14.6433 33.0549 14.7982 32.995 14.7982 32.995C15.1757 32.9425 19.1762 30.147 19.8686 29.6615C20.5603 29.759 21.2726 29.8096 22 29.8096C28.6275 29.8096 34 25.5955 34 20.397C34 15.1986 28.6275 10.9844 22 10.9844Z" fill="#FFFEFA"/>
<path d="M15.5286 23.7971C15.1546 23.7971 14.8505 23.5066 14.8505 23.1495V19.1209H13.7924C13.4254 19.1209 13.127 18.823 13.127 18.4569C13.127 18.0909 13.4255 17.793 13.7924 17.793H17.2648C17.6317 17.793 17.9302 18.0909 17.9302 18.4569C17.9302 18.823 17.6316 19.1209 17.2648 19.1209H16.2067V23.1495C16.2067 23.5066 15.9026 23.7971 15.5286 23.7971ZM21.4747 23.7882C21.1919 23.7882 20.9756 23.6734 20.9104 23.4887L20.5746 22.6097L18.5068 22.6096L18.1708 23.4892C18.1059 23.6735 17.8896 23.7882 17.6069 23.7882C17.4581 23.7884 17.3111 23.7565 17.1758 23.6947C16.9889 23.6084 16.8092 23.3713 17.0151 22.7317L18.6371 18.4624C18.7514 18.1377 19.0985 17.8031 19.5402 17.7931C19.9831 17.803 20.3302 18.1377 20.4446 18.4631L22.066 22.7305C22.2724 23.3715 22.0927 23.6088 21.9057 23.6948C21.7704 23.7565 21.6234 23.7884 21.4747 23.7882ZM20.218 21.4085L19.5407 19.4844L18.8634 21.4085H20.218ZM23.1573 23.6982C22.7989 23.6982 22.5075 23.4192 22.5075 23.0766V18.4711C22.5075 18.0971 22.818 17.793 23.1997 17.793C23.5814 17.793 23.8919 18.0971 23.8919 18.4711V22.455H25.3329C25.6913 22.455 25.9828 22.7339 25.9828 23.0766C25.9828 23.4192 25.6913 23.6982 25.3329 23.6982H23.1573ZM26.9247 23.7882C26.5507 23.7882 26.2465 23.4841 26.2465 23.1101V18.4711C26.2465 18.0971 26.5507 17.793 26.9247 17.793C27.2986 17.793 27.6028 18.0971 27.6028 18.4711V19.9286L29.4947 18.0366C29.592 17.9393 29.7257 17.8858 29.8708 17.8858C30.0401 17.8858 30.2101 17.9588 30.3375 18.086C30.4562 18.2047 30.5271 18.3574 30.5368 18.5159C30.5467 18.6759 30.4934 18.8225 30.3872 18.9288L28.8419 20.4739L30.5111 22.6852C30.5649 22.7561 30.6042 22.8371 30.6266 22.9233C30.6489 23.0095 30.6539 23.0994 30.6412 23.1875C30.6292 23.2758 30.5997 23.3608 30.5545 23.4375C30.5094 23.5143 30.4494 23.5813 30.3781 23.6348C30.2609 23.7239 30.1176 23.772 29.9703 23.7716C29.8652 23.7721 29.7615 23.748 29.6674 23.7012C29.5733 23.6544 29.4915 23.5862 29.4286 23.5021L27.8383 21.395L27.603 21.6303V23.1098C27.6028 23.2896 27.5312 23.4621 27.4041 23.5893C27.2769 23.7164 27.1045 23.788 26.9247 23.7882Z" fill="#3F2B2E"/>
</svg>
