<svg width="160" height="38" viewBox="0 0 160 38" fill="none" xmlns="http://www.w3.org/2000/svg">
<path d="M13.1193 18.0581C11.9254 20.7293 11.5104 20.859 8.62994 20.859C6.55399 20.859 6.13772 20.6517 5.82721 20.2878C5.43774 19.8478 5.38552 18.9142 5.38552 17.6167V8.51352C5.38552 5.81702 5.61827 5.73943 6.83899 5.55737L7.40934 5.45289C7.61824 5.32321 7.59142 4.80558 7.35841 4.70139C6.21533 4.75349 5.04818 4.77898 3.90639 4.77898C2.71251 4.77898 1.54534 4.75349 0.247001 4.70139C0.0142233 4.80558 0.0142233 5.32321 0.194773 5.45289L0.921572 5.55737C2.14228 5.73943 2.37528 5.81702 2.37528 8.51352V18.1611C2.37528 20.859 2.14228 20.9365 0.921572 21.0916L0.142546 21.2215C-0.0903404 21.3512 -0.0127114 21.8701 0.194773 21.9746C1.28574 21.9224 2.58266 21.8956 3.90639 21.8956H6.6048C9.51209 21.8956 11.7447 21.9224 12.8343 21.9746C13.1461 21.2736 13.7176 19.302 13.9237 18.2132C13.7953 18.006 13.379 17.9284 13.1193 18.0581Z" fill="white"/>
<path d="M13.7876 3.72857C12.6204 3.72857 12.3086 4.50557 12.3086 4.947C12.3086 5.51812 12.7233 5.82987 13.1129 5.88057C13.7368 5.95815 14.5144 6.37438 14.5144 7.22868C14.5144 8.37119 13.5279 9.12297 12.4131 9.58962C12.334 9.797 12.3877 10.1086 12.595 10.2637C14.3846 9.82241 16.1501 8.37119 16.1501 6.39958C16.1501 4.97389 15.0605 3.72857 13.7876 3.72857Z" fill="white"/>
<path d="M31.0838 21.4282C24.6934 21.4282 22.3564 15.2046 22.3564 10.4054C22.3564 3.30607 26.737 1.00451 30.1115 1.00451C36.3069 1.00451 38.6751 6.77536 38.6751 12.1246C38.6751 18.5104 34.9774 21.4282 31.0838 21.4282ZM30.6617 0.000358885C23.9793 0.000358885 19.1133 4.96033 19.1133 11.4433C19.1133 17.279 23.46 22.4336 30.6617 22.4336C36.9235 22.4336 41.9195 17.6669 41.9195 11.119C41.9195 5.41436 38.1557 0.000358885 30.6617 0.000358885Z" fill="white"/>
<path d="M60.319 17.4123C59.5936 19.0991 58.1655 21.2766 54.8956 21.2766C51.548 21.2766 48.0959 18.5801 48.0959 13.0559C48.0959 7.73916 51.4168 5.4051 54.7134 5.4051C58.14 5.4051 59.3072 7.55737 59.7475 9.19202C59.9294 9.37381 60.3967 9.34692 60.5789 9.13965C60.3191 7.22014 60.2683 5.69024 60.2162 5.09364C59.9818 5.04154 59.8011 5.01605 59.4894 4.93846C58.2684 4.62672 56.479 4.36735 54.9985 4.36735C52.3777 4.36735 49.7569 5.11885 47.8363 6.57143C45.9155 8.04951 44.5664 10.4103 44.5664 13.4438C44.5664 16.8426 46.1498 19.202 48.2512 20.577C50.1199 21.7956 52.3256 22.3145 54.8956 22.3145C56.5821 22.3145 58.373 21.8731 58.9445 21.6911C59.2295 21.6136 59.5401 21.5092 59.8518 21.4585C60.2162 20.9649 60.9161 19.2542 61.098 17.5167C60.9682 17.2827 60.5534 17.1796 60.319 17.4123Z" fill="white"/>
<path d="M66.4897 20.577C68.3582 21.7955 70.5641 22.3145 73.1339 22.3145C74.8204 22.3145 76.6112 21.8731 77.1814 21.6911C77.4681 21.6136 77.7784 21.5092 78.0904 21.4585C78.4545 20.9649 79.1546 19.2542 79.3366 17.5167C79.2068 17.2826 78.7917 17.1796 78.5573 17.4124C77.8319 19.0991 76.4038 21.2765 73.1339 21.2765C69.7863 21.2765 66.3342 18.5801 66.3342 13.0559C66.3342 7.73916 69.6551 5.4051 72.952 5.4051C76.3786 5.4051 77.5457 7.55737 77.9872 9.19202C78.168 9.37381 78.6367 9.34692 78.8172 9.13965C78.5573 7.22014 78.5069 5.69024 78.4545 5.09364C78.2201 5.04154 78.0396 5.01605 77.7277 4.93846C76.507 4.62672 74.7173 4.36735 73.2384 4.36735C70.6163 4.36735 67.9955 5.11885 66.0746 6.57143C64.154 8.04951 62.8047 10.4103 62.8047 13.4438C62.8047 16.8426 64.3881 19.202 66.4897 20.577Z" fill="white"/>
<path d="M88.6916 21.9746C88.8993 21.8718 88.9245 21.4049 88.744 21.2231L88.1722 21.1454C86.9529 20.9902 86.7186 20.9112 86.7186 18.1626V8.51488C86.7186 5.76628 86.9529 5.6887 88.1722 5.53212L88.744 5.45454C88.9245 5.27247 88.8993 4.80723 88.6916 4.70275C87.5485 4.75373 86.3814 4.78034 85.2397 4.78034C84.0457 4.78034 82.8785 4.75373 81.7355 4.70275C81.5278 4.80723 81.5025 5.27247 81.6847 5.45454L82.2549 5.53212C83.4755 5.6887 83.7085 5.76628 83.7085 8.51488V18.1626C83.7085 20.9112 83.4755 20.9902 82.2549 21.1454L81.6847 21.2231C81.5025 21.4049 81.5278 21.8718 81.7355 21.9746C82.8785 21.9239 84.0978 21.8971 85.2397 21.8971C86.3814 21.8971 87.5485 21.9239 88.6916 21.9746Z" fill="white"/>
<path d="M97.6215 5.81684C98.2976 5.81684 98.3228 5.86922 98.3228 6.95796V18.1611C98.3228 20.9112 98.0902 20.9887 96.8692 21.0916L95.7783 21.2228C95.5978 21.3512 95.6233 21.8701 95.8321 21.9746C97.4929 21.9223 98.7124 21.8969 99.8541 21.8969C100.996 21.8969 102.163 21.9223 103.669 21.9746C103.878 21.8701 103.903 21.4033 103.721 21.2228L102.787 21.1184C101.566 20.9887 101.333 20.9112 101.333 18.1611V6.95796C101.333 5.86922 101.359 5.81684 102.035 5.81684H103.514C106.29 5.81684 106.784 6.30925 107.121 8.33296C107.354 8.51334 107.795 8.46264 107.925 8.25397C107.848 7.4246 108.055 5.19363 108.315 4.1301C108.262 4.05251 108.133 4.00181 107.977 4.00181C107.873 4.00181 107.77 4.05251 107.666 4.10489C107.354 4.70121 106.964 4.7788 105.693 4.7788H95.1039C93.3397 4.7788 92.977 4.75359 92.8458 4.10489C92.7948 4.0273 92.6905 4.00181 92.5874 4.00181C92.4576 4.00181 92.3531 4.0273 92.3023 4.10489C92.1201 5.01296 91.7308 6.62072 91.2891 8.02121C91.3933 8.28058 91.9382 8.35817 92.1201 8.20299C93.0799 6.1017 93.7815 5.81684 96.1679 5.81684H97.6215Z" fill="white"/>
<path d="M116.005 14.376H113.305C112.683 14.376 112.605 14.376 112.89 13.6229L113.979 10.5894C114.447 9.37094 114.656 8.72196 114.758 8.54017H114.811C114.941 8.72196 115.096 9.21437 115.538 10.5894L116.627 13.7019C116.835 14.3238 116.731 14.376 116.005 14.376ZM123.971 21.2229L123.582 21.144C122.259 20.9113 122.13 20.7293 121.533 18.9918L117.796 8.12563C117.381 6.9579 117.042 5.73948 116.627 4.57175C116.523 4.44178 116.394 4.36448 116.187 4.36448C116.134 4.36448 115.278 5.42773 114.369 5.60951C114.447 6.05095 114.214 6.67304 113.876 7.50353L110.321 16.7354C109.775 18.1358 109.36 19.2245 109.049 19.8986C108.66 20.7561 108.374 20.9888 107.622 21.0932L106.843 21.2229C106.661 21.4556 106.687 21.8448 106.869 21.9746C107.777 21.9224 108.581 21.897 109.438 21.897C110.502 21.9224 111.359 21.9224 112.19 21.9746C112.397 21.8702 112.423 21.4034 112.241 21.2229L111.488 21.0932C110.529 20.962 110.424 20.8845 110.944 19.3557L112.008 16.2432C112.241 15.5422 112.215 15.5422 112.89 15.5422H116.342C117.069 15.5422 117.147 15.5422 117.406 16.2432L118.625 19.7703C118.963 20.8845 118.885 21.041 117.951 21.144L117.381 21.2229C117.224 21.3765 117.249 21.8448 117.459 21.9746C118.366 21.9477 119.507 21.897 120.624 21.897C121.974 21.897 122.934 21.9224 123.998 21.9746C124.179 21.8448 124.179 21.4034 123.971 21.2229Z" fill="white"/>
<path d="M143.909 4.72058C142.974 4.77127 142.3 4.79816 141.183 4.79816C140.171 4.79816 139.212 4.77127 138.2 4.72058C137.94 4.79816 137.913 5.2903 138.148 5.47236L138.745 5.54994C139.394 5.65414 139.809 5.80932 140.042 6.19865C140.509 6.97704 140.534 9.3618 140.534 11.308V16.3653C140.534 16.78 140.534 16.9096 140.456 16.9872C140.197 16.8321 137.783 14.0834 136.694 12.8904L134.099 10.0882C133.19 9.10383 130.362 5.8362 129.92 4.72058C129.297 4.77127 128.674 4.79816 128.129 4.79816C127.48 4.79816 126.053 4.82505 125.066 4.72058C124.807 4.79816 124.781 5.31719 124.963 5.47236L125.353 5.54994C125.716 5.62725 126.442 5.8362 126.727 6.06869C127.611 6.82047 127.584 7.23669 127.584 9.259V15.405C127.584 17.4554 127.584 19.7105 127.247 20.5142C127.065 20.9289 126.598 21.0333 126.105 21.111L125.533 21.2407C125.326 21.4226 125.378 21.8641 125.586 21.9923C126.493 21.9415 127.194 21.9147 128.286 21.9147C129.271 21.9147 130.284 21.9415 131.244 21.9923C131.503 21.9147 131.529 21.4226 131.296 21.2407L130.724 21.163C130.076 21.0601 129.635 20.9036 129.4 20.5142C128.96 19.7359 128.933 17.3511 128.933 15.405V10.3476C128.933 8.97386 128.933 8.6876 129.012 8.6876C129.453 9.07693 130.284 10.0627 131.97 11.9568L138.043 18.8811C139.912 21.0079 140.665 21.8895 141.08 22.4338C141.391 22.4592 141.755 22.3561 141.962 22.0713C141.884 21.4748 141.884 18.2846 141.884 17.5062V11.308C141.884 9.259 141.884 7.00225 142.247 6.19865C142.429 5.78383 142.87 5.68103 143.364 5.60205L143.961 5.47236C144.168 5.2903 144.116 4.85026 143.909 4.72058Z" fill="white"/>
<path d="M159.17 18.0597C158.261 20.1595 157.689 20.9112 154.394 20.8604C152.214 20.8604 151.772 20.6518 151.461 20.2893C151.072 19.8479 151.02 18.9157 151.02 17.5915V14.2985C151.02 13.6498 151.045 13.5976 151.642 13.5976H152.888C155.146 13.5976 155.588 13.6498 155.769 14.7398L155.951 15.7764C156.158 15.933 156.652 15.933 156.782 15.751C156.755 14.9204 156.704 14.0135 156.704 13.0278C156.704 12.0688 156.755 11.1337 156.782 10.4343C156.652 10.227 156.158 10.227 155.951 10.4089L155.769 11.2902C155.588 12.4059 155.146 12.4312 152.888 12.4312H151.642C151.045 12.4312 151.02 12.4059 151.02 11.7317V7.34867C151.02 5.8706 151.02 5.81822 152.136 5.81822H153.875C154.576 5.81822 155.354 5.87059 155.951 6.05126C156.782 6.25825 157.171 6.90724 157.587 8.41192C157.794 8.56709 158.313 8.515 158.416 8.30772C158.261 7.1921 158.104 5.1429 158.001 4.70287C157.664 4.75384 156.158 4.78045 154.497 4.78045H149.541C148.399 4.78045 147.18 4.75384 146.193 4.70287C145.984 4.80734 145.959 5.27259 146.141 5.45465L146.556 5.50675C147.777 5.68881 148.009 5.76612 148.009 8.51499V18.1625C148.009 20.9112 147.777 20.9902 146.556 21.12L145.596 21.2229C145.414 21.4049 145.441 21.8718 145.647 21.9746C146.816 21.9238 148.399 21.897 149.541 21.897H152.5C155.536 21.897 157.768 21.9238 158.909 21.9746C159.273 21.2751 159.845 19.3035 160 18.2147C159.845 17.9553 159.403 17.8777 159.17 18.0597Z" fill="white"/>
<path d="M66.2788 32.3605C66.0969 32.4787 65.3751 32.5938 64.9701 32.5938C64.9182 32.595 64.8442 32.5944 64.7702 32.5922V32.5874C64.7702 31.2278 64.7739 29.5735 64.7829 29.3895C64.7834 29.3721 64.7848 29.3579 64.7862 29.3458C64.847 29.3268 64.9522 29.3038 65.0491 29.3038C65.6994 29.3038 66.1406 29.4441 66.4801 29.7585C66.7847 30.0405 66.9467 30.4948 66.9467 31.0721C66.9467 31.6701 66.5969 32.1328 66.2788 32.3605ZM69.9353 36.778C69.8428 36.778 69.5087 36.7444 69.0806 36.3166C68.8099 36.0463 68.5428 35.7239 68.1579 35.204C67.8067 34.7288 66.9731 33.4232 66.7248 32.9403C66.9411 32.8496 67.2231 32.711 67.414 32.5431C67.6828 32.3314 68.2437 31.891 68.2437 30.8776C68.2437 30.1797 67.9143 29.5425 67.3408 29.1288C66.8587 28.7792 66.3051 28.6302 65.4886 28.6302C65.2756 28.6302 65.0503 28.6456 64.8187 28.6616C64.3142 28.6968 63.7505 28.6887 63.4321 28.6616C63.2544 28.6458 63.0501 28.6164 62.8802 28.6853C62.8045 28.7159 62.7367 28.7697 62.6991 28.8419C62.6375 28.9609 62.6801 29.1122 62.7827 29.1932C62.8704 29.2626 62.9834 29.2901 63.0904 29.3139C63.4624 29.3758 63.4643 29.4103 63.4859 29.7402L63.4913 29.8242C63.519 30.2458 63.5647 30.9508 63.5647 32.6392C63.5647 34.7029 63.5322 35.6048 63.5002 36.2104C63.468 36.6609 63.3926 36.6754 63.1022 36.732C62.9038 36.7776 62.6562 36.8345 62.6562 37.0823C62.6562 37.16 62.6896 37.4129 63.1173 37.4129C63.2258 37.4129 63.3587 37.4014 63.5128 37.3874C63.7113 37.3694 63.9484 37.3479 64.2195 37.3479C64.4544 37.3479 64.6321 37.3676 64.7876 37.3849C64.9258 37.4001 65.0491 37.4129 65.1775 37.4129C65.6532 37.4129 65.6773 37.1376 65.6773 37.0823C65.6773 36.8137 65.3925 36.762 65.2821 36.7421C64.9079 36.6794 64.8824 36.6029 64.8608 36.5379C64.8367 36.465 64.7834 36.0536 64.7702 35.4304C64.7579 34.955 64.7688 33.608 64.7829 33.2649C65.0634 33.2616 65.1921 33.2882 65.2756 33.3128C65.3586 33.3333 65.4416 33.4112 65.5503 33.5308C65.6083 33.6014 65.8177 33.9251 66.0397 34.2677C66.4674 34.9295 67.0538 35.8359 67.479 36.3777C67.9222 36.9277 68.5035 37.4902 69.4554 37.4902C69.7194 37.4902 69.9137 37.4678 70.0314 37.4236C70.1088 37.3944 70.3437 37.3067 70.3437 37.095C70.3437 36.9376 70.2035 36.778 69.9353 36.778Z" fill="white"/>
<path d="M78.0958 36.4406C77.7065 36.7266 77.3062 36.8602 76.8376 36.8602C75.9017 36.8602 75.0899 36.409 74.4256 35.5197C73.8788 34.7828 73.5256 33.7657 73.5256 32.9297C73.5256 31.7602 73.8586 30.7037 74.4388 30.0301C74.8203 29.5929 75.618 29.1408 76.2929 29.1408C77.1453 29.1408 77.8374 29.4534 78.4083 30.0956C79.1225 30.9054 79.5662 32.0708 79.5662 33.1366C79.5662 34.7643 78.8058 35.9109 78.0958 36.4406ZM76.5528 28.4668C75.6258 28.4668 74.5854 28.8122 73.9051 29.3444C72.7001 30.2606 72.1387 31.3956 72.1387 32.9165C72.1387 35.4477 74.1837 37.5859 76.6038 37.5859C77.1666 37.5859 77.7791 37.4445 78.3739 37.1771C79.3272 36.7566 80.9405 35.4297 80.9405 33.1237C80.9405 30.5992 78.9317 28.4668 76.5528 28.4668Z" fill="white"/>
<path d="M90.8362 28.6794C90.6848 28.6934 90.5147 28.7089 90.3563 28.7089C90.2251 28.7089 90.0281 28.6926 89.8316 28.6772C89.62 28.6604 89.4092 28.6439 89.2682 28.6439C88.845 28.6439 88.7822 28.843 88.7822 28.9612C88.7822 29.1407 88.9212 29.2592 89.1819 29.31C89.6303 29.4256 89.6505 29.4718 89.6505 29.5573C89.6505 29.7222 89.5544 30.0917 89.4044 30.5006C89.2144 31.0382 88.0472 34.0363 87.5536 35.2665C87.0241 33.9641 85.7438 30.6177 85.5363 29.9962C85.4556 29.7528 85.4113 29.6186 85.4113 29.4922C85.4113 29.4592 85.4727 29.3786 85.6616 29.354C85.7791 29.3357 86.1373 29.2808 86.1373 28.9741C86.1373 28.8999 86.102 28.657 85.6513 28.657C85.5551 28.657 85.4043 28.666 85.2294 28.6772C85.0029 28.6915 84.733 28.7089 84.4981 28.7089C84.4219 28.7089 84.2534 28.6974 84.0737 28.6859C83.8546 28.6719 83.6202 28.657 83.4997 28.657C83.0493 28.657 83.0137 28.8999 83.0137 28.9741C83.0137 29.0831 83.072 29.2755 83.4672 29.3418C83.7301 29.378 83.8946 29.5169 84.0168 29.8063C84.5755 31.1202 86.4641 35.9916 86.8742 37.2064L86.8977 37.2877C86.937 37.4221 87.0014 37.6465 87.2453 37.6465C87.4098 37.6465 87.539 37.5061 87.5696 37.3095C87.6035 37.1734 87.7734 36.6936 88.0772 35.9309C88.6591 34.5169 89.1339 33.349 89.4992 32.4512C89.905 31.4518 90.1738 30.7891 90.303 30.4967C90.7608 29.4671 90.888 29.4312 91.2191 29.3368C91.3359 29.3075 91.6471 29.2298 91.6471 28.9486C91.6471 28.697 91.4231 28.6282 90.8362 28.6794Z" fill="white"/>
<path d="M111.596 28.6692C111.538 28.6692 111.457 28.6748 111.358 28.6824C111.115 28.7003 110.699 28.7121 110.309 28.6872C109.738 28.6513 109.412 28.7037 109.412 28.9865C109.412 29.2291 109.649 29.2885 109.838 29.3356C110.158 29.4182 110.319 29.4594 110.319 30.1031L110.345 32.2803C110.359 33.3634 110.374 34.5267 110.381 35.1773C108.942 33.5675 105.872 30.0859 105.096 29.0849C104.906 28.8418 104.801 28.7082 104.609 28.7082C104.349 28.7082 104.045 28.6874 103.781 28.6696C103.569 28.6556 103.383 28.6434 103.261 28.6434C102.913 28.6434 102.736 28.7541 102.736 28.9734C102.736 29.263 103.042 29.307 103.183 29.3269C103.474 29.3754 103.585 29.4296 103.711 29.526C103.769 29.5717 103.851 29.6347 103.851 30.282C103.851 31.1072 103.746 35.4969 103.709 35.9347C103.65 36.6201 103.581 36.6396 103.185 36.7511C103.012 36.798 102.775 36.8621 102.775 37.108C102.775 37.2531 102.855 37.4259 103.235 37.4259C103.269 37.4259 103.34 37.4192 103.435 37.4086C103.754 37.3744 104.369 37.3627 104.747 37.3999C105.472 37.4708 105.601 37.2896 105.601 37.108C105.601 36.8459 105.344 36.7761 105.194 36.7349C104.949 36.6651 104.756 36.5523 104.71 36.4493C104.624 36.2665 104.589 35.9773 104.589 35.4501C104.589 35.1669 104.599 33.911 104.61 32.6777C104.617 31.8699 104.623 31.0711 104.627 30.5613C105.335 31.3878 106.207 32.396 107.057 33.3794C108.445 34.9835 109.756 36.4988 110.231 37.0792L110.285 37.145C110.395 37.28 110.502 37.4245 110.631 37.5427C110.725 37.6293 110.869 37.6783 110.991 37.6232C111.09 37.5792 111.146 37.4747 111.167 37.3727C111.191 37.2533 111.179 37.1291 111.175 37.0083C111.158 36.5789 111.163 36.1234 111.168 35.5498C111.171 35.2104 111.175 34.8294 111.175 34.3883C111.175 33.0118 111.204 30.2669 111.258 29.8602C111.302 29.5655 111.321 29.4434 111.659 29.3311L111.718 29.3101C111.832 29.2706 112.043 29.1973 112.043 28.9734C112.043 28.8348 111.966 28.6692 111.596 28.6692Z" fill="white"/>
<path d="M122.2 34.9564C121.954 34.9564 121.879 35.2216 121.842 35.3536C121.669 35.8737 121.364 36.2655 120.934 36.5194C120.579 36.7345 120.12 36.8347 119.49 36.8347C118.869 36.8347 117.985 36.6025 117.372 35.9524C116.833 35.3715 116.204 34.2382 116.204 32.9551C116.204 31.749 116.655 30.6323 117.097 30.1544C117.512 29.7191 118.195 29.1408 119.335 29.1408C120.072 29.1408 120.8 29.3791 121.204 29.76C121.394 29.915 121.643 30.2854 121.735 30.6774C121.817 30.9597 121.969 31.0185 122.082 31.0185C122.272 31.0185 122.399 30.839 122.399 30.5715C122.399 30.5264 122.394 30.4465 122.387 30.3479C122.372 30.1402 122.348 29.8267 122.374 29.6004C122.374 29.4426 122.286 29.283 122.149 29.1928L122.139 29.187C121.67 28.9085 120.521 28.4668 119.439 28.4668C118.299 28.4668 117.114 28.8973 116.348 29.5911C115.309 30.5309 114.805 31.6782 114.805 33.0977C114.805 34.2443 115.386 35.5261 115.949 36.1028C116.63 36.7936 117.641 37.5859 119.439 37.5859C120.605 37.5859 121.414 37.2096 122.138 36.7862C122.233 36.7144 122.301 36.6174 122.333 36.4908C122.339 36.4494 122.356 36.3689 122.376 36.2693C122.453 35.8888 122.517 35.56 122.517 35.3902C122.517 35.0903 122.358 34.9564 122.2 34.9564Z" fill="white"/>
<path d="M100.016 35.6321C99.9145 35.5883 99.8015 35.6147 99.714 35.6766C99.6165 35.7457 99.5456 35.8504 99.478 35.9468L99.4046 36.0513C99.3045 36.1944 99.1372 36.435 99.0604 36.5025C98.8992 36.6462 98.7983 36.6877 97.5748 36.6877C96.6456 36.6877 96.515 36.66 96.3471 36.5712C96.1921 36.493 96.129 36.2693 96.129 36.1889C96.129 36.0948 96.1237 35.7768 96.1167 35.3838C96.1058 34.7505 96.0904 33.9206 96.0904 33.5209V33.4626C97.8153 33.4635 97.6925 33.4773 97.9123 33.54C97.9726 33.561 98.0334 33.6497 98.0819 33.794C98.0819 33.794 98.1273 33.9066 98.1273 33.907C98.1646 33.9987 98.2018 34.0993 98.28 34.1648C98.3672 34.2379 98.5138 34.2478 98.6114 34.1881C98.6825 34.1447 98.7352 34.052 98.7613 33.9741C98.7944 33.877 98.791 33.7772 98.7745 33.6772C98.7627 33.6064 98.7282 33.2669 98.7495 33.0425C98.7599 32.9484 98.775 32.8369 98.7888 32.7333C98.8118 32.567 98.8297 32.4181 98.8297 32.368C98.8297 32.0664 98.6383 31.986 98.5247 31.986C98.3162 31.986 98.2173 32.1862 98.1805 32.2605C98.0353 32.5501 97.9566 32.6038 97.9305 32.6182C97.8812 32.6487 97.7954 32.6722 97.1891 32.6722H96.0904V29.6606C96.0904 29.5368 96.0954 29.4617 96.1002 29.4159C96.5475 29.3942 98.2565 29.4012 98.5584 29.4572C98.6601 29.4741 98.8129 29.4992 99.0542 30.0709C99.0921 30.1609 99.1389 30.2589 99.214 30.3242C99.2981 30.3973 99.4351 30.4239 99.5358 30.3704C99.6241 30.3236 99.6692 30.223 99.6874 30.1289C99.7011 30.0583 99.7037 29.9782 99.688 29.9077C99.6412 29.6917 99.6232 29.422 99.6114 29.2433L99.5997 29.0918C99.5548 28.8119 99.4357 28.6699 99.2462 28.6699C99.1918 28.6699 99.1352 28.6733 99.0618 28.6774C98.9415 28.6848 98.7714 28.6957 98.4695 28.6957C98.217 28.6957 97.644 28.7018 97.0535 28.7079C96.4298 28.7144 95.7871 28.7218 95.4869 28.7218C95.2685 28.7218 95.0866 28.7102 94.9201 28.7002C94.7693 28.6912 94.6303 28.6828 94.4888 28.6828C94.2404 28.6828 94.0677 28.8077 94.0677 28.987C94.0677 29.0904 94.1162 29.2735 94.4369 29.338C94.7522 29.4077 94.8585 29.4315 94.8585 30.127C94.8585 32.8681 94.8453 34.1111 94.7934 36.1709C94.7839 36.6056 94.6477 36.7054 94.2648 36.7692C94.1252 36.7945 93.834 36.8476 93.834 37.1089C93.834 37.1642 93.857 37.4395 94.3077 37.4395C94.3621 37.4395 94.4921 37.4308 94.6566 37.4193C94.9229 37.4003 95.2859 37.3745 95.5519 37.3745C96.0483 37.3745 96.6353 37.386 97.2595 37.398C97.9731 37.4118 98.7341 37.4263 99.4663 37.4263C99.5781 37.4263 99.7359 37.3787 99.8491 37.1527C99.9128 37.0275 99.9764 36.7916 100.05 36.5194C100.083 36.3955 100.117 36.2686 100.149 36.1603C100.174 36.0768 100.198 35.993 100.193 35.9048C100.188 35.7933 100.124 35.6813 100.016 35.6321Z" fill="white"/>
<path d="M131.34 35.6321C131.238 35.5883 131.125 35.6147 131.038 35.6766C130.941 35.7457 130.87 35.8504 130.802 35.9468L130.729 36.0513C130.628 36.1944 130.461 36.435 130.384 36.5025C130.223 36.6462 130.122 36.6877 128.899 36.6877C127.97 36.6877 127.839 36.66 127.671 36.5712C127.516 36.493 127.453 36.2693 127.453 36.1889C127.453 36.0948 127.448 35.7768 127.441 35.3838C127.43 34.7505 127.415 33.9206 127.415 33.5209V33.4626C129.139 33.4635 129.016 33.4773 129.237 33.54C129.296 33.561 129.357 33.6497 129.406 33.794C129.406 33.794 129.451 33.9066 129.451 33.907C129.488 33.9987 129.526 34.0993 129.604 34.1648C129.691 34.2379 129.838 34.2478 129.935 34.1881C130.006 34.1447 130.059 34.052 130.085 33.9741C130.119 33.877 130.115 33.7772 130.098 33.6772C130.087 33.6064 130.052 33.2669 130.074 33.0425C130.084 32.9484 130.099 32.8369 130.113 32.7333C130.136 32.567 130.154 32.4181 130.154 32.368C130.154 32.0664 129.962 31.986 129.849 31.986C129.64 31.986 129.541 32.1862 129.505 32.2605C129.359 32.5501 129.281 32.6038 129.254 32.6182C129.205 32.6487 129.12 32.6722 128.513 32.6722H127.415V29.6606C127.415 29.5368 127.419 29.4617 127.424 29.4159C127.871 29.3942 129.58 29.4012 129.883 29.4572C129.984 29.4741 130.137 29.4992 130.378 30.0709C130.416 30.1609 130.463 30.2589 130.538 30.3242C130.622 30.3973 130.759 30.4239 130.86 30.3704C130.948 30.3236 130.993 30.223 131.012 30.1289C131.025 30.0583 131.028 29.9782 131.012 29.9077C130.965 29.6917 130.947 29.422 130.935 29.2433L130.924 29.0918C130.879 28.8119 130.76 28.6699 130.57 28.6699C130.516 28.6699 130.459 28.6733 130.386 28.6774C130.265 28.6848 130.096 28.6957 129.793 28.6957C129.541 28.6957 128.968 28.7018 128.378 28.7079C127.754 28.7144 127.111 28.7218 126.811 28.7218C126.592 28.7218 126.411 28.7102 126.244 28.7002C126.093 28.6912 125.955 28.6828 125.813 28.6828C125.565 28.6828 125.392 28.8077 125.392 28.987C125.392 29.0904 125.44 29.2735 125.761 29.338C126.076 29.4077 126.183 29.4315 126.183 30.127C126.183 32.8681 126.17 34.1111 126.118 36.1709C126.108 36.6056 125.972 36.7054 125.589 36.7692C125.449 36.7945 125.158 36.8476 125.158 37.1089C125.158 37.1642 125.181 37.4395 125.632 37.4395C125.686 37.4395 125.816 37.4308 125.981 37.4193C126.247 37.4003 126.61 37.3745 126.876 37.3745C127.372 37.3745 127.959 37.386 128.583 37.398C129.297 37.4118 130.058 37.4263 130.79 37.4263C130.902 37.4263 131.06 37.3787 131.173 37.1527C131.237 37.0275 131.3 36.7916 131.374 36.5194C131.407 36.3955 131.441 36.2686 131.473 36.1603C131.498 36.0768 131.522 35.993 131.517 35.9048C131.512 35.7933 131.447 35.6813 131.34 35.6321Z" fill="white"/>
<path d="M57.5645 33.1119C57.2371 33.3344 56.6729 33.5075 55.8314 33.1974C55.83 32.2137 55.8244 30.8776 55.8208 30.0505L55.8345 29.2741C55.9452 29.2478 56.167 29.2141 56.3567 29.2141C56.9027 29.2141 57.3114 29.401 57.7291 29.8435C58.2784 30.3928 58.3067 31.2336 58.3067 31.3967C58.3067 32.3672 57.9365 32.8591 57.5645 33.1119ZM58.8805 29.4609C58.3421 28.8668 57.4779 28.5531 56.3828 28.5531C56.2578 28.5531 55.9707 28.5767 55.6865 28.6009C55.4654 28.6194 55.2462 28.6383 55.1156 28.6436C54.7694 28.6567 54.3969 28.6699 54.2052 28.6699C53.9501 28.6699 53.7578 28.8119 53.7578 29.0001C53.7578 29.1808 53.8949 29.2951 54.1797 29.3421C54.488 29.3752 54.4927 29.4724 54.4975 29.5556C54.5211 29.7908 54.5875 31.5037 54.5875 32.5753C54.5875 34.5702 54.5743 36.0799 54.5611 36.3813C54.544 36.665 54.5169 36.693 54.1942 36.7577C54.0816 36.7818 53.7828 36.8448 53.7828 37.1087C53.7828 37.2272 53.8444 37.4263 54.2565 37.4263C54.3187 37.4263 54.4126 37.4179 54.5253 37.4073C54.6738 37.3927 54.8605 37.3745 55.0472 37.3745C55.3771 37.3745 55.5974 37.3942 55.7933 37.4114C55.9604 37.4263 56.1112 37.4395 56.2917 37.4395C56.7175 37.4395 56.7388 37.1642 56.7388 37.1087C56.7388 36.816 56.3988 36.7715 56.278 36.7557C55.9957 36.7101 55.9136 36.6787 55.8822 36.2754C55.8589 35.9491 55.8337 35.1225 55.8323 33.7834C56.0487 33.9251 57.2556 34.3903 58.4217 33.6299C59.2312 33.1017 59.6163 32.3372 59.6163 31.3188C59.6163 30.6289 59.3391 29.9323 58.8805 29.4609Z" fill="white"/>
<path d="M34.6853 35.6321C34.5841 35.5883 34.4711 35.6147 34.3837 35.6766C34.2864 35.7457 34.2152 35.8504 34.1477 35.9468L34.0745 36.0513C33.9742 36.1944 33.8068 36.435 33.73 36.5025C33.5691 36.6462 33.4682 36.6877 32.2445 36.6877C31.3153 36.6877 31.1847 36.66 31.0168 36.5712C30.862 36.493 30.799 36.2693 30.799 36.1889C30.799 36.0948 30.7934 35.7768 30.7864 35.3838C30.7754 34.7505 30.7603 33.9206 30.7603 33.5209V33.4626C32.485 33.4635 32.3622 33.4773 32.5822 33.54C32.6422 33.561 32.703 33.6497 32.7515 33.794C32.7515 33.794 32.7969 33.9066 32.7972 33.907C32.8342 33.9987 32.8718 34.0993 32.95 34.1648C33.0369 34.2379 33.1837 34.2478 33.2813 34.1881C33.3522 34.1447 33.4049 34.052 33.431 33.9741C33.464 33.877 33.4607 33.7772 33.4441 33.6772C33.4324 33.6064 33.3979 33.2669 33.4195 33.0425C33.4296 32.9484 33.445 32.8369 33.4587 32.7333C33.4814 32.567 33.4993 32.4181 33.4993 32.368C33.4993 32.0664 33.3079 31.986 33.1947 31.986C32.9858 31.986 32.8869 32.1862 32.8502 32.2605C32.7053 32.5501 32.6262 32.6038 32.6002 32.6182C32.5511 32.6487 32.4653 32.6722 31.8591 32.6722H30.7603V29.6606C30.7603 29.5368 30.7651 29.4617 30.7698 29.4159C31.2172 29.3942 32.9261 29.4012 33.2283 29.4572C33.3298 29.4741 33.4828 29.4992 33.7239 30.0709C33.762 30.1609 33.8088 30.2589 33.8836 30.3242C33.9677 30.3973 34.1051 30.4239 34.2054 30.3704C34.2937 30.3236 34.3391 30.223 34.3573 30.1289C34.3708 30.0583 34.3733 29.9782 34.3579 29.9077C34.3108 29.6917 34.2929 29.422 34.2811 29.2433L34.2693 29.0918C34.2245 28.8119 34.1056 28.6699 33.9161 28.6699C33.8615 28.6699 33.8049 28.6733 33.7314 28.6774C33.6112 28.6848 33.441 28.6957 33.1389 28.6957C32.8869 28.6957 32.3137 28.7018 31.7234 28.7079C31.0997 28.7144 30.4567 28.7218 30.1568 28.7218C29.9382 28.7218 29.7565 28.7102 29.5898 28.7002C29.439 28.6912 29.3002 28.6828 29.1584 28.6828C28.9103 28.6828 28.7374 28.8077 28.7374 28.987C28.7374 29.0904 28.7859 29.2735 29.1065 29.338C29.4219 29.4077 29.5284 29.4315 29.5284 30.127C29.5284 32.8681 29.5152 34.1111 29.4634 36.1709C29.4538 36.6056 29.3173 36.7054 28.9344 36.7692C28.7949 36.7945 28.5039 36.8476 28.5039 37.1089C28.5039 37.1642 28.5266 37.4395 28.9773 37.4395C29.032 37.4395 29.1618 37.4308 29.3263 37.4193C29.5926 37.4003 29.9556 37.3745 30.2216 37.3745C30.718 37.3745 31.3049 37.386 31.9291 37.398C32.6428 37.4118 33.404 37.4263 34.1359 37.4263C34.248 37.4263 34.4055 37.3787 34.5191 37.1527C34.5824 37.0275 34.6463 36.7916 34.7195 36.5194C34.7525 36.3955 34.7865 36.2686 34.819 36.1603C34.8439 36.0768 34.8675 35.993 34.863 35.9048C34.8574 35.7933 34.7932 35.6813 34.6853 35.6321Z" fill="white"/>
<path d="M46.1855 28.6692C46.1275 28.6692 46.047 28.6748 45.9475 28.6824C45.7042 28.7003 45.2888 28.7121 44.8989 28.6872C44.3271 28.6513 44.0017 28.7037 44.0017 28.9865C44.0017 29.2291 44.2388 29.2885 44.4275 29.3356C44.7476 29.4182 44.9087 29.4594 44.9087 30.1031L44.9348 32.2803C44.9488 33.3634 44.9637 34.5267 44.9701 35.1773C43.5314 33.5675 40.4613 30.0859 39.6863 29.0849C39.4962 28.8418 39.3911 28.7082 39.1991 28.7082C38.939 28.7082 38.6349 28.6874 38.3708 28.6696C38.1592 28.6556 37.9725 28.6434 37.8509 28.6434C37.5025 28.6434 37.3262 28.7541 37.3262 28.9734C37.3262 29.263 37.6317 29.307 37.7727 29.3269C38.0631 29.3754 38.1743 29.4296 38.3002 29.526C38.3591 29.5717 38.4406 29.6347 38.4406 30.282C38.4406 31.1072 38.3355 35.4969 38.2988 35.9347C38.2394 36.6201 38.1704 36.6396 37.7741 36.7511C37.6011 36.798 37.3649 36.8621 37.3649 37.108C37.3649 37.2531 37.4445 37.4259 37.8245 37.4259C37.8585 37.4259 37.9297 37.4192 38.025 37.4086C38.3439 37.3744 38.9589 37.3627 39.3373 37.3999C40.0616 37.4708 40.1911 37.2896 40.1911 37.108C40.1911 36.8459 39.9338 36.7761 39.7838 36.7349C39.5391 36.6651 39.3463 36.5523 39.2997 36.4493C39.2142 36.2665 39.1789 35.9773 39.1789 35.4501C39.1789 35.1669 39.1893 33.911 39.1997 32.6777C39.2067 31.8699 39.2128 31.0711 39.2162 30.5613C39.9248 31.3878 40.7965 32.396 41.6469 33.3794C43.0344 34.9835 44.3451 36.4988 44.8207 37.0792L44.8748 37.145C44.985 37.28 45.0921 37.4245 45.2207 37.5427C45.3146 37.6293 45.4581 37.6783 45.5812 37.6232C45.6798 37.5792 45.7359 37.4747 45.7566 37.3727C45.7813 37.2533 45.769 37.1291 45.7645 37.0083C45.748 36.5789 45.7527 36.1234 45.7575 35.5498C45.7608 35.2104 45.7645 34.8294 45.7645 34.3883C45.7645 33.0118 45.7934 30.2669 45.848 29.8602C45.8923 29.5655 45.9111 29.4434 46.2491 29.3311L46.3077 29.3101C46.4218 29.2706 46.6328 29.1973 46.6328 28.9734C46.6328 28.8348 46.5555 28.6692 46.1855 28.6692Z" fill="white"/>
</svg>
