<svg width="44" height="44" viewBox="0 0 44 44" fill="none" xmlns="http://www.w3.org/2000/svg">
<rect width="44" height="44" rx="22" fill="#3F2B2E"/>
<g clip-path="url(#clip0_1103_3755)">
<path d="M33.4995 16.0382C33.2229 14.9728 32.41 14.1341 31.3773 13.8491C29.5053 13.332 22 13.332 22 13.332C22 13.332 14.4947 13.332 12.6227 13.8491C11.5913 14.1341 10.7771 14.9728 10.5018 16.0382C10 17.9694 10 21.9987 10 21.9987C10 21.9987 10 26.028 10.5018 27.9592C10.7771 29.0246 11.5913 29.8633 12.624 30.1483C14.496 30.6654 22.0013 30.6654 22.0013 30.6654C22.0013 30.6654 29.5066 30.6654 31.3773 30.1483C32.41 29.8633 33.2229 29.0246 33.4995 27.9592C34.0013 26.028 34.0013 21.9987 34.0013 21.9987C34.0013 21.9987 34.0013 17.9694 33.4995 16.0382Z" fill="#FFFEFA"/>
<path d="M19.5449 25.6548L25.8177 21.9973L19.5449 18.3398V25.6548Z" fill="#3F2B2E"/>
</g>
<defs>
<clipPath id="clip0_1103_3755">
<rect width="24" height="17.3333" fill="white" transform="translate(10 13.332)"/>
</clipPath>
</defs>
</svg>
